<svg width="40" height="40" viewBox="0 0 40 40" fill="none" xmlns="http://www.w3.org/2000/svg">
<path d="M10 31.6667C10 33.5 11.5 35 13.3334 35H26.6667C28.5 35 30 33.5 30 31.6667V15C30 13.1667 28.5 11.6667 26.6667 11.6667H13.3334C11.5 11.6667 10 13.1667 10 15V31.6667ZM15 15H25C25.9167 15 26.6667 15.75 26.6667 16.6667V30C26.6667 30.9167 25.9167 31.6667 25 31.6667H15C14.0834 31.6667 13.3334 30.9167 13.3334 30V16.6667C13.3334 15.75 14.0834 15 15 15ZM25.8334 6.66667L24.65 5.48333C24.35 5.18333 23.9167 5 23.4834 5H16.5167C16.0834 5 15.65 5.18333 15.35 5.48333L14.1667 6.66667H10C9.08337 6.66667 8.33337 7.41667 8.33337 8.33333C8.33337 9.25 9.08337 10 10 10H30C30.9167 10 31.6667 9.25 31.6667 8.33333C31.6667 7.41667 30.9167 6.66667 30 6.66667H25.8334Z" fill="#6D9BF5"/>
</svg>
