<svg width="201" height="229" viewBox="0 0 201 229" fill="none" xmlns="http://www.w3.org/2000/svg">
<path d="M74.3141 136.652C41.6409 150.131 16.11 136.071 7.42873 127.357C-8.55273 147.11 13.3478 195.33 39.3916 216.826C60.2267 234.023 114.761 223.991 139.424 216.826C182.514 170.348 170.006 124.646 158.365 107.604C114.564 106.442 115.156 119.804 74.3141 136.652Z" fill="#6D9BF5"/>
<path d="M34.8857 33.3736C34.8857 33.3736 30.9861 79.375 17.4401 101.754C0.891366 129.094 -9.04086 169.908 32.9098 215.715C34.8566 217.841 37.2394 219.572 39.9858 220.447C47.7885 222.933 63.6542 226.165 87.2224 226.321C110.791 226.165 126.656 222.933 134.459 220.447C137.205 219.572 139.575 217.855 141.522 215.729C168.455 186.327 174.012 158.982 170.162 135.935M34.8857 33.3736C34.8857 33.3736 51.5616 36.0036 87.2224 36.0036C122.883 36.0036 132.034 34.33 139.559 33.3736M34.8857 33.3736C34.8857 33.3736 27.3303 19.3461 21.7995 12.1512C19.7637 9.50299 18.2893 4.96103 21.3766 3.68576C24.1121 2.55581 28.4255 2.57759 34.8857 5.63887C47.5239 11.6277 108.272 15.9498 134.702 13.7343C139.481 13.3337 144.797 18.0578 143.611 22.7049C142.595 26.6909 141.242 30.698 139.559 33.3736M139.559 33.3736C139.596 36.2581 140.532 42.6469 140.957 46.993M143.065 63.2513C145.692 76.1286 150.057 90.2767 157.005 101.754C160.512 107.549 163.722 113.948 166.204 120.873M143.065 63.2513C144.671 61.8964 149.279 59.794 154.81 59.4258C165.586 58.7085 189.958 68.2899 184.314 101.754C183.358 106.931 178.398 118.003 166.204 120.873M143.065 63.2513C141.667 56.3971 141.498 52.5329 140.957 46.993M166.204 120.873C167.918 125.652 169.284 130.682 170.162 135.935M140.957 46.993C148.397 44.1239 161.259 45.8977 168.664 48.9057C178.67 52.9703 196.885 64.9249 197.911 88.356C198.937 111.787 191.157 123.024 170.162 135.935" stroke="#797CCD" stroke-width="4.77576"/>
<path d="M22.643 103.97C7.10753 130.527 -3.91716 166.195 35.2542 210.489C37.1833 212.67 39.5674 214.446 42.3485 215.31C50.1116 217.721 65.9659 220.825 87.9763 220.976C109.734 220.827 123.763 218.224 130.933 215.998C133.715 215.135 136.079 213.356 138.011 211.178C163.189 182.805 168.351 158.412 164.739 136.042C163.914 130.933 160.559 121.194 158.8 117.036C152.267 101.594 150.218 104.854 146.921 99.2181" stroke="white" stroke-width="5.9697"/>
<path d="M47.1394 49.9213C45.9515 61.2061 41.2 84.3698 37.6364 92.6849" stroke="#797CCD" stroke-width="4.77576" stroke-linecap="round"/>
<path d="M33.2534 104.116C32.3293 106.323 30.3693 110.977 29.9229 111.941" stroke="#797CCD" stroke-width="4.77576" stroke-linecap="round"/>
<path d="M132.073 101.594C137.022 108.721 142.681 118.067 146.921 138.418M146.921 153.267C146.921 159.8 146.921 163.958 141.576 171.085" stroke="white" stroke-width="5.9697" stroke-linecap="round"/>
</svg>
