<svg width="40" height="40" viewBox="0 0 40 40" fill="none" xmlns="http://www.w3.org/2000/svg">
<path d="M19.984 4C11.152 4 4 11.168 4 20C4 28.832 11.152 36 19.984 36C28.832 36 36 28.832 36 20C36 11.168 28.832 4 19.984 4ZM20 32.8C12.928 32.8 7.2 27.072 7.2 20C7.2 12.928 12.928 7.2 20 7.2C27.072 7.2 32.8 12.928 32.8 20C32.8 27.072 27.072 32.8 20 32.8ZM19.648 12H19.552C18.912 12 18.4 12.512 18.4 13.152V20.704C18.4 21.264 18.688 21.792 19.184 22.08L25.824 26.064C26.368 26.384 27.072 26.224 27.392 25.68C27.728 25.136 27.552 24.416 26.992 24.096L20.8 20.416V13.152C20.8 12.512 20.288 12 19.648 12Z" fill="#6D9BF5"/>
</svg>
